<svg width="690" height="463" xmlns="http://www.w3.org/2000/svg" xmlns:xlink="http://www.w3.org/1999/xlink" overflow="hidden"><defs><clipPath id="clip0"><rect x="0" y="0" width="690" height="463"/></clipPath></defs><g clip-path="url(#clip0)"><rect x="0" y="0" width="690" height="462.888" fill="#FFFFFF"/><path d="M328.5 22.1679C328.5 14.6182 334.622 8.49795 342.173 8.49795L553.827 8.49795C561.378 8.49795 567.5 14.6182 567.5 22.1679L567.5 239.769C567.5 247.318 561.378 253.439 553.827 253.439L342.173 253.439C334.622 253.439 328.5 247.318 328.5 239.769Z" stroke="#172C51" stroke-width="1.33366" stroke-miterlimit="8" fill="#DEEBF7" fill-rule="evenodd"/><text font-family="Calibri,Calibri_MSFontService,sans-serif" font-weight="700" font-size="14.6667" transform="matrix(1 0 0 0.999758 407.649 31)">Rgbd2Pcd</text><text font-family="Calibri,Calibri_MSFontService,sans-serif" font-weight="700" font-size="14.6667" transform="matrix(1 0 0 0.999758 467.997 31)">.py</text><path d="M26.5 56.4864 63.5 56.4864 63.5 91.7804 52.8025 102.475 26.5 102.475Z" fill="#FFFFFF" fill-rule="evenodd"/><path d="M52.8025 102.475 54.942 93.9194 63.5 91.7804Z" fill="#CDCDCD" fill-rule="evenodd"/><path d="M52.8025 102.475 54.942 93.9194 63.5 91.7804 52.8025 102.475 26.5 102.475 26.5 56.4864 63.5 56.4864 63.5 91.7804" stroke="#172C51" stroke-width="1.33366" stroke-miterlimit="8" fill="none" fill-rule="evenodd"/><path d="M20.5 62.4849 58.5 62.4849 58.5 97.4899 47.5134 108.474 20.5 108.474Z" fill="#FFFFFF" fill-rule="evenodd"/><path d="M47.5134 108.474 49.7108 99.6867 58.5 97.4899Z" fill="#CDCDCD" fill-rule="evenodd"/><path d="M47.5134 108.474 49.7108 99.6867 58.5 97.4899 47.5134 108.474 20.5 108.474 20.5 62.4849 58.5 62.4849 58.5 97.4899" stroke="#172C51" stroke-width="1.33366" stroke-miterlimit="8" fill="none" fill-rule="evenodd"/><path d="M15.5 69.4833 52.4999 69.4833 52.4999 104.777 41.8025 115.472 15.5 115.472Z" fill="#FFFFFF" fill-rule="evenodd"/><path d="M41.8025 115.472 43.942 106.916 52.4999 104.777Z" fill="#CDCDCD" fill-rule="evenodd"/><path d="M41.8025 115.472 43.942 106.916 52.4999 104.777 41.8025 115.472 15.5 115.472 15.5 69.4833 52.4999 69.4833 52.4999 104.777" stroke="#172C51" stroke-width="1.33366" stroke-miterlimit="8" fill="none" fill-rule="evenodd"/><text font-family="Calibri,Calibri_MSFontService,sans-serif" font-weight="700" font-size="14.6667" transform="matrix(1 0 0 0.999758 8.62676 50)">RGB</text><text font-family="Yu Gothic,Yu Gothic_MSFontService,sans-serif" font-weight="700" font-size="14.6667" transform="matrix(1 0 0 0.999758 34.4663 50)">画像群</text><path d="M91.5 64.1513C91.5 59.9181 94.9325 56.4864 99.1668 56.4864L148.833 56.4864C153.067 56.4864 156.5 59.9181 156.5 64.1513L156.5 94.8103C156.5 99.0436 153.067 102.475 148.833 102.475L99.1668 102.475C94.9325 102.475 91.5 99.0436 91.5 94.8103Z" stroke="#172C51" stroke-width="1.33366" stroke-miterlimit="8" fill="#DEEBF7" fill-rule="evenodd"/><text font-family="Calibri,Calibri_MSFontService,sans-serif" font-weight="700" font-size="14.6667" transform="matrix(1 0 0 0.999758 97.1172 75)">ExecDA3</text><text font-family="Calibri,Calibri_MSFontService,sans-serif" font-weight="700" font-size="14.6667" transform="matrix(1 0 0 0.999758 114.121 92)">.</text><text font-family="Calibri,Calibri_MSFontService,sans-serif" font-weight="700" font-size="14.6667" transform="matrix(1 0 0 0.999758 118.122 92)">py</text><path d="M242.5 43.4894 280.5 43.4894 280.5 78.4945 269.514 89.4784 242.5 89.4784Z" fill="#FFFFFF" fill-rule="evenodd"/><path d="M269.514 89.4784 271.711 80.6913 280.5 78.4945Z" fill="#CDCDCD" fill-rule="evenodd"/><path d="M269.514 89.4784 271.711 80.6913 280.5 78.4945 269.514 89.4784 242.5 89.4784 242.5 43.4894 280.5 43.4894 280.5 78.4945" stroke="#172C51" stroke-width="1.33366" stroke-miterlimit="8" fill="none" fill-rule="evenodd"/><path d="M237.5 49.4881 274.5 49.4881 274.5 84.7821 263.802 95.477 237.5 95.477Z" fill="#FFFFFF" fill-rule="evenodd"/><path d="M263.802 95.477 265.942 86.9211 274.5 84.7821Z" fill="#CDCDCD" fill-rule="evenodd"/><path d="M263.802 95.477 265.942 86.9211 274.5 84.7821 263.802 95.477 237.5 95.477 237.5 49.4881 274.5 49.4881 274.5 84.7821" stroke="#172C51" stroke-width="1.33366" stroke-miterlimit="8" fill="none" fill-rule="evenodd"/><path d="M231.5 56.4864 268.5 56.4864 268.5 91.7804 257.803 102.475 231.5 102.475Z" fill="#FFFFFF" fill-rule="evenodd"/><path d="M257.803 102.475 259.942 93.9194 268.5 91.7804Z" fill="#CDCDCD" fill-rule="evenodd"/><path d="M257.803 102.475 259.942 93.9194 268.5 91.7804 257.803 102.475 231.5 102.475 231.5 56.4864 268.5 56.4864 268.5 91.7804" stroke="#172C51" stroke-width="1.33366" stroke-miterlimit="8" fill="none" fill-rule="evenodd"/><text font-family="Calibri,Calibri_MSFontService,sans-serif" font-weight="700" font-size="14.6667" transform="matrix(1 0 0 0.999758 238.44 69)">336</text><text font-family="Yu Gothic,Yu Gothic_MSFontService,sans-serif" font-weight="700" font-size="14.6667" transform="matrix(1 0 0 0.999758 242.354 81)">×</text><text font-family="Calibri,Calibri_MSFontService,sans-serif" font-weight="700" font-size="14.6667" transform="matrix(1 0 0 0.999758 238.44 93)">504</text><text font-family="Calibri,Calibri_MSFontService,sans-serif" font-weight="700" font-size="14.6667" transform="matrix(1 0 0 0.999758 218.875 20)">processed</text><text font-family="Calibri,Calibri_MSFontService,sans-serif" font-weight="700" font-size="14.6667" transform="matrix(1 0 0 0.999758 218.875 37)">RGB</text><text font-family="Yu Gothic,Yu Gothic_MSFontService,sans-serif" font-weight="700" font-size="14.6667" transform="matrix(1 0 0 0.999758 244.714 37)">画像群</text><path d="M239.5 142.466 276.5 142.466 276.5 177.76 265.802 188.454 239.5 188.454Z" fill="#FFFFFF" fill-rule="evenodd"/><path d="M265.802 188.454 267.942 179.899 276.5 177.76Z" fill="#CDCDCD" fill-rule="evenodd"/><path d="M265.802 188.454 267.942 179.899 276.5 177.76 265.802 188.454 239.5 188.454 239.5 142.466 276.5 142.466 276.5 177.76" stroke="#172C51" stroke-width="1.33366" stroke-miterlimit="8" fill="none" fill-rule="evenodd"/><path d="M233.5 148.464 271.5 148.464 271.5 183.469 260.513 194.453 233.5 194.453Z" fill="#FFFFFF" fill-rule="evenodd"/><path d="M260.513 194.453 262.711 185.666 271.5 183.469Z" fill="#CDCDCD" fill-rule="evenodd"/><path d="M260.513 194.453 262.711 185.666 271.5 183.469 260.513 194.453 233.5 194.453 233.5 148.464 271.5 148.464 271.5 183.469" stroke="#172C51" stroke-width="1.33366" stroke-miterlimit="8" fill="none" fill-rule="evenodd"/><path d="M227.5 155.462 265.5 155.462 265.5 190.467 254.513 201.451 227.5 201.451Z" fill="#FFFFFF" fill-rule="evenodd"/><path d="M254.513 201.451 256.711 192.664 265.5 190.467Z" fill="#CDCDCD" fill-rule="evenodd"/><path d="M254.513 201.451 256.711 192.664 265.5 190.467 254.513 201.451 227.5 201.451 227.5 155.462 265.5 155.462 265.5 190.467" stroke="#172C51" stroke-width="1.33366" stroke-miterlimit="8" fill="none" fill-rule="evenodd"/><text font-family="Calibri,Calibri_MSFontService,sans-serif" font-weight="700" font-size="14.6667" transform="matrix(1 0 0 0.999758 234.859 168)">336</text><text font-family="Yu Gothic,Yu Gothic_MSFontService,sans-serif" font-weight="700" font-size="14.6667" transform="matrix(1 0 0 0.999758 238.773 180)">×</text><text font-family="Calibri,Calibri_MSFontService,sans-serif" font-weight="700" font-size="14.6667" transform="matrix(1 0 0 0.999758 234.859 192)">504</text><text font-family="Calibri,Calibri_MSFontService,sans-serif" font-weight="700" font-size="14.6667" transform="matrix(1 0 0 0.999758 211.775 138)">Depth</text><text font-family="Yu Gothic,Yu Gothic_MSFontService,sans-serif" font-weight="700" font-size="14.6667" transform="matrix(1 0 0 0.999758 249.117 138)">画像群</text><path d="M235.5 315.424 273.5 315.424 273.5 350.429 262.513 361.413 235.5 361.413Z" fill="#FFFFFF" fill-rule="evenodd"/><path d="M262.513 361.413 264.711 352.626 273.5 350.429Z" fill="#CDCDCD" fill-rule="evenodd"/><path d="M262.513 361.413 264.711 352.626 273.5 350.429 262.513 361.413 235.5 361.413 235.5 315.424 273.5 315.424 273.5 350.429" stroke="#172C51" stroke-width="1.33366" stroke-miterlimit="8" fill="none" fill-rule="evenodd"/><path d="M229.5 321.422 267.5 321.422 267.5 356.427 256.513 367.411 229.5 367.411Z" fill="#FFFFFF" fill-rule="evenodd"/><path d="M256.513 367.411 258.711 358.624 267.5 356.427Z" fill="#CDCDCD" fill-rule="evenodd"/><path d="M256.513 367.411 258.711 358.624 267.5 356.427 256.513 367.411 229.5 367.411 229.5 321.422 267.5 321.422 267.5 356.427" stroke="#172C51" stroke-width="1.33366" stroke-miterlimit="8" fill="none" fill-rule="evenodd"/><path d="M224.5 328.421 261.5 328.421 261.5 363.715 250.803 374.41 224.5 374.41Z" fill="#FFFFFF" fill-rule="evenodd"/><path d="M250.803 374.41 252.942 365.854 261.5 363.715Z" fill="#CDCDCD" fill-rule="evenodd"/><path d="M250.803 374.41 252.942 365.854 261.5 363.715 250.803 374.41 224.5 374.41 224.5 328.421 261.5 328.421 261.5 363.715" stroke="#172C51" stroke-width="1.33366" stroke-miterlimit="8" fill="none" fill-rule="evenodd"/><text font-family="Calibri,Calibri_MSFontService,sans-serif" font-weight="700" font-size="14.6667" transform="matrix(1 0 0 0.999758 231.609 350)">3x3</text><text font-family="Yu Gothic,Yu Gothic_MSFontService,sans-serif" font-weight="700" font-size="14.6667" transform="matrix(1 0 0 0.999758 211.279 311)">内部パラメータ群</text><path d="M232.5 396.404 269.5 396.404 269.5 431.698 258.803 442.393 232.5 442.393Z" fill="#FFFFFF" fill-rule="evenodd"/><path d="M258.803 442.393 260.942 433.837 269.5 431.698Z" fill="#CDCDCD" fill-rule="evenodd"/><path d="M258.803 442.393 260.942 433.837 269.5 431.698 258.803 442.393 232.5 442.393 232.5 396.404 269.5 396.404 269.5 431.698" stroke="#172C51" stroke-width="1.33366" stroke-miterlimit="8" fill="none" fill-rule="evenodd"/><path d="M226.5 402.403 263.5 402.403 263.5 437.697 252.803 448.392 226.5 448.392Z" fill="#FFFFFF" fill-rule="evenodd"/><path d="M252.803 448.392 254.942 439.836 263.5 437.697Z" fill="#CDCDCD" fill-rule="evenodd"/><path d="M252.803 448.392 254.942 439.836 263.5 437.697 252.803 448.392 226.5 448.392 226.5 402.403 263.5 402.403 263.5 437.697" stroke="#172C51" stroke-width="1.33366" stroke-miterlimit="8" fill="none" fill-rule="evenodd"/><path d="M220.5 409.401 258.5 409.401 258.5 444.406 247.514 455.39 220.5 455.39Z" fill="#FFFFFF" fill-rule="evenodd"/><path d="M247.514 455.39 249.711 446.603 258.5 444.406Z" fill="#CDCDCD" fill-rule="evenodd"/><path d="M247.514 455.39 249.711 446.603 258.5 444.406 247.514 455.39 220.5 455.39 220.5 409.401 258.5 409.401 258.5 444.406" stroke="#172C51" stroke-width="1.33366" stroke-miterlimit="8" fill="none" fill-rule="evenodd"/><text font-family="Calibri,Calibri_MSFontService,sans-serif" font-weight="700" font-size="14.6667" transform="matrix(1 0 0 0.999758 228.027 431)">3x4</text><text font-family="Yu Gothic,Yu Gothic_MSFontService,sans-serif" font-weight="700" font-size="14.6667" transform="matrix(1 0 0 0.999758 204.587 393)">外部パラメータ群</text><path d="M0.000599753-1 4.99227-0.997006 9.34791-0.989119 11.0882-0.983853 12.4304-0.977978 13.3032-0.971639 13.6155-0.965025 13.9209-0.958526 13.9069-0.958726 14.7699-0.952441 16.1078-0.946586 17.8455-0.941334 20.5233-0.937506 20.5205 1.06249 17.8395 1.05866 16.099 1.0534 14.7553 1.04751 13.8854 1.04117 13.5732 1.03453 13.2678 1.02806 13.2817 1.02826 12.4217 1.022 11.0822 1.01614 9.34429 1.01088 4.99107 1.00299-0.000599753 1ZM19.1928-3.93891 27.1886 0.0695013 19.1844 4.06109Z" transform="matrix(1.00024 0 0 -1 63 79.0504)"/><path d="M0.000524714-1 6.94836-0.996354 13.6789-0.98605 19.973-0.970039 25.6125-0.949271 30.3792-0.924697 34.0571-0.897249 35.4203-0.882726 36.432-0.867786 37.083-0.852028 37.3201-0.835172 37.5337-0.819999 37.487-0.82222 38.11-0.807158 38.1005-0.807341 39.1054-0.792515 39.1013-0.792568 40.4609-0.778096 40.4577-0.778125 44.1317-0.750722 48.8946-0.726181 54.5315-0.705431 60.8234-0.689429 67.833-0.679865 67.8302 1.32013 60.8183 1.31056 54.5241 1.29456 48.8843 1.27379 44.1168 1.24922 40.4412 1.22181 39.078 1.2073 38.0663 1.19237 37.4153 1.17663 37.1782 1.15979 36.9645 1.14459 37.0112 1.14682 36.3883 1.13174 36.3977 1.13193 35.3928 1.11709 35.3969 1.11714 34.0374 1.10265 34.0406 1.10268 30.3689 1.07528 25.6051 1.05071 19.9679 1.02995 13.6759 1.01395 6.94731 1.00365-0.000524714 1ZM66.5009-3.68074 74.4983 0.324514 66.4956 4.31926Z" transform="matrix(1.00024 0 0 -1 156 79.3054)"/><path d="M156.085 77.9845 159.486 78.2748 162.929 79.1383 166.298 80.523 169.568 82.3862 172.715 84.6872 175.734 87.4017 181.198 93.8344 185.815 101.445 189.371 109.93 191.655 118.986 192.261 123.677 192.467 128.345 192.67 132.971 192.663 132.887 193.256 137.477 193.234 137.361 195.485 146.287 195.438 146.145 198.936 154.492 198.869 154.36 203.406 161.839 203.313 161.71 208.682 168.031 208.588 167.935 211.519 170.571 211.441 170.507 214.502 172.744 214.407 172.683 217.572 174.486 217.39 174.406 220.717 175.505 220.089 177.404 216.668 176.273 213.367 174.392 210.219 172.091 207.201 169.377 201.737 162.944 197.12 155.334 193.564 146.849 191.28 137.792 190.673 133.101 190.468 128.433 190.265 123.807 190.272 123.891 189.679 119.302 189.701 119.418 187.449 110.492 187.497 110.634 183.999 102.286 184.066 102.418 179.529 94.9396 179.621 95.0683 174.253 88.7475 174.346 88.8437 171.415 86.208 171.494 86.2718 168.433 84.0342 168.528 84.0957 165.363 82.2924 165.478 82.3485 162.235 81.0155 162.372 81.0606 159.077 80.2343 159.236 80.2607 155.915 79.9773ZM219.903 172.268 226.935 177.798 218.291 180.103Z"/><path d="M156.15 77.9921 157.588 78.2096 159.151 78.9102 161.941 81.3642 164.594 85.1905 167.128 90.2573 169.557 96.4869 171.873 103.793 174.061 112.083 176.103 121.262 177.979 131.232 179.671 141.896 181.158 153.155 182.42 164.911 183.437 177.065 184.19 189.524 184.815 214.901 185.041 227.633 185.04 227.598 185.7 240.227 185.698 240.194 186.762 252.623 186.759 252.59 188.199 264.721 188.194 264.688 189.981 276.42 189.975 276.387 192.08 287.621 192.073 287.586 194.466 298.223 194.457 298.185 197.11 308.125 197.098 308.082 199.983 317.225 199.966 317.176 203.053 325.423 203.028 325.364 206.289 332.615 206.252 332.541 209.657 338.698 209.597 338.603 213.118 343.565 212.956 343.387 217.768 347.541 216.46 349.055 211.557 344.821 207.933 339.715 204.481 333.473 201.191 326.154 198.083 317.852 195.183 308.662 192.519 298.681 190.117 288.007 188.006 276.738 186.214 264.973 184.77 252.81 183.703 240.348 183.041 227.686 182.815 214.94 182.815 214.947 182.19 189.591 182.192 189.627 181.441 177.197 181.443 177.22 180.428 165.09 180.43 165.113 179.17 153.381 179.173 153.405 177.689 142.171 177.693 142.196 176.006 131.559 176.011 131.588 174.14 121.648 174.146 121.68 172.112 112.536 172.122 112.574 169.945 104.327 169.959 104.374 167.66 97.122 167.682 97.1831 165.281 91.0266 165.319 91.1107 162.837 86.1489 162.909 86.2714 160.366 82.604 160.527 82.785 157.943 80.5115 158.195 80.6734 156.894 80.0905 157.154 80.1667 155.85 79.9697ZM217.424 344.093 223.268 350.864 214.343 351.476Z"/><path d="M156.239 78.01 157.469 78.313 158.763 79.259 159.923 80.6545 161.014 82.4732 162.068 84.7125 163.097 87.3675 164.106 90.4289 165.097 93.8851 166.068 97.7225 167.021 101.931 168.857 111.375 170.594 122.109 172.216 134 173.708 146.922 175.053 160.747 176.236 175.346 177.239 190.59 178.048 206.35 178.646 222.502 179.144 255.428 179.382 271.95 179.382 271.922 180.076 288.315 180.075 288.288 181.195 304.422 181.193 304.395 182.71 320.142 182.707 320.115 184.588 335.344 184.584 335.316 186.8 349.9 186.795 349.87 189.316 363.678 189.309 363.646 192.104 376.549 192.095 376.512 195.133 388.381 195.121 388.339 198.371 399.045 198.354 398.992 201.787 408.406 201.768 408.358 203.544 412.539 203.526 412.501 205.336 416.311 205.314 416.266 207.154 419.689 207.124 419.636 208.99 422.655 208.949 422.593 210.838 425.191 210.779 425.117 212.688 427.279 212.459 427.087 214.203 428.151 213.162 429.858 211.288 428.716 209.248 426.405 207.309 423.738 205.406 420.662 203.54 417.191 201.71 413.34 199.917 409.115 196.465 399.652 193.2 388.899 190.152 376.99 187.351 364.053 184.825 350.215 182.604 335.603 180.72 320.347 179.201 304.574 178.078 288.413 177.382 271.993 177.144 255.458 176.646 222.544 176.647 222.565 176.05 206.431 176.05 206.446 175.242 190.699 175.243 190.714 174.24 175.485 174.241 175.5 173.06 160.916 173.061 160.933 171.718 147.125 171.72 147.143 170.23 134.24 170.233 134.26 168.614 122.391 168.617 122.416 166.885 111.71 166.89 111.741 165.06 102.328 165.067 102.358 164.12 98.1763 164.126 98.201 163.161 94.391 163.169 94.4211 162.189 90.9988 162.2 91.0363 161.205 88.0179 161.222 88.0663 160.215 85.4679 160.243 85.5322 159.225 83.3701 159.273 83.4587 158.247 81.7489 158.336 81.8737 157.304 80.6324 157.483 80.8007 156.448 80.0441 156.798 80.2076 155.761 79.9518ZM214.222 424.823 219.687 431.905 210.741 432.026Z"/><path d="M453.5 84.4796 491.5 84.4796 491.5 119.485 480.513 130.468 453.5 130.468Z" fill="#FFFFFF" fill-rule="evenodd"/><path d="M480.513 130.468 482.711 121.681 491.5 119.485Z" fill="#CDCDCD" fill-rule="evenodd"/><path d="M480.513 130.468 482.711 121.681 491.5 119.485 480.513 130.468 453.5 130.468 453.5 84.4796 491.5 84.4796 491.5 119.485" stroke="#172C51" stroke-width="1.33366" stroke-miterlimit="8" stroke-dasharray="5.33462 4.00097" fill="none" fill-rule="evenodd"/><path d="M447.5 90.4781 485.5 90.4781 485.5 125.483 474.513 136.467 447.5 136.467Z" fill="#FFFFFF" fill-rule="evenodd"/><path d="M474.513 136.467 476.711 127.68 485.5 125.483Z" fill="#CDCDCD" fill-rule="evenodd"/><path d="M474.513 136.467 476.711 127.68 485.5 125.483 474.513 136.467 447.5 136.467 447.5 90.4781 485.5 90.4781 485.5 125.483" stroke="#172C51" stroke-width="1.33366" stroke-miterlimit="8" stroke-dasharray="5.33462 4.00097" fill="none" fill-rule="evenodd"/><path d="M442.5 97.4764 479.5 97.4764 479.5 132.77 468.802 143.465 442.5 143.465Z" fill="#FFFFFF" fill-rule="evenodd"/><path d="M468.802 143.465 470.942 134.909 479.5 132.77Z" fill="#CDCDCD" fill-rule="evenodd"/><path d="M468.802 143.465 470.942 134.909 479.5 132.77 468.802 143.465 442.5 143.465 442.5 97.4764 479.5 97.4764 479.5 132.77" stroke="#172C51" stroke-width="1.33366" stroke-miterlimit="8" stroke-dasharray="5.33462 4.00097" fill="none" fill-rule="evenodd"/><text font-family="Calibri,Calibri_MSFontService,sans-serif" font-weight="700" font-size="14.6667" transform="matrix(1 0 0 0.999758 423.181 79)">RGB</text><text font-family="Calibri,Calibri_MSFontService,sans-serif" font-weight="700" font-size="14.6667" transform="matrix(1 0 0 0.999758 449.02 79)">-</text><text font-family="Calibri,Calibri_MSFontService,sans-serif" font-weight="700" font-size="14.6667" transform="matrix(1 0 0 0.999758 453.522 79)">D</text><text font-family="Yu Gothic,Yu Gothic_MSFontService,sans-serif" font-weight="700" font-size="14.6667" transform="matrix(1 0 0 0.999758 462.69 79)">画像群</text><path d="M346.5 105.141C346.5 100.908 349.933 97.4764 354.167 97.4764L404.833 97.4764C409.067 97.4764 412.5 100.908 412.5 105.141L412.5 135.8C412.5 140.034 409.067 143.465 404.833 143.465L354.167 143.465C349.933 143.465 346.5 140.034 346.5 135.8Z" stroke="#172C51" stroke-width="1.33366" stroke-miterlimit="8" stroke-dasharray="5.33462 4.00097" fill="#FFFFFF" fill-rule="evenodd"/><text font-family="Calibri,Calibri_MSFontService,sans-serif" font-weight="700" font-size="14.6667" transform="matrix(1 0 0 0.999758 366.199 110)">RGB</text><text font-family="Yu Gothic,Yu Gothic_MSFontService,sans-serif" font-weight="700" font-size="14.6667" transform="matrix(1 0 0 0.999758 371.781 122)">＋</text><text font-family="Calibri,Calibri_MSFontService,sans-serif" font-weight="700" font-size="14.6667" transform="matrix(1 0 0 0.999758 360.445 134)">Depth</text><path d="M280.098 64.9889 286.376 65.6079 292.536 67.3803 298.288 70.1298 303.442 73.697 307.81 77.9292 311.197 82.6799 313.382 87.773 313.973 90.4581 314.168 93.072 314.359 95.6152 314.338 95.4751 314.893 97.9984 314.835 97.8188 316.941 102.726 316.836 102.54 320.108 107.129 319.989 106.991 324.233 111.103 324.106 110.999 329.127 114.474 328.989 114.394 334.593 117.073 334.407 117.005 339.983 118.415 339.493 120.354 333.82 118.92 328.054 116.163 322.9 112.596 318.532 108.364 315.145 103.613 312.959 98.5203 312.369 95.8352 312.173 93.2212 311.983 90.678 312.004 90.8181 311.449 88.2948 311.507 88.4744 309.401 83.5671 309.506 83.7533 306.234 79.1643 306.352 79.302 302.109 75.1905 302.236 75.2946 297.215 71.8197 297.353 71.8996 291.748 69.2205 291.903 69.2793 285.911 67.5551 286.089 67.5893 279.902 66.9792ZM338.972 115.238 346.342 120.309 337.862 123.161Z"/><path d="M0.0814531-0.996677 7.21073-0.414039 14.1864 1.24931 20.7083 3.83341 26.5621 7.19107 31.5323 11.1822 35.3769 15.6515 36.8348 18.0704 37.9114 20.5468 38.5849 23.0858 38.8095 25.573 39.0264 27.9758 38.9971 27.8093 39.6294 30.1932 39.5799 30.0509 40.6001 32.3973 40.5395 32.2798 41.9196 34.5698 41.8212 34.4338 45.5509 38.7695 45.4189 38.6419 50.2564 42.5264 50.1278 42.4387 55.8515 45.7217 55.7224 45.6595 62.1108 48.1907 61.9508 48.1423 69.2016 49.687 68.7849 51.6431 61.452 50.0809 54.9188 47.4924 49.065 44.1347 44.0948 40.1436 40.2501 35.6743 38.7923 33.2555 37.7157 30.7791 37.0422 28.2401 36.8176 25.7529 36.6006 23.3501 36.63 23.5166 35.9976 21.1326 36.0471 21.2749 35.027 18.9285 35.0876 19.046 33.7075 16.756 33.8058 16.892 30.0762 12.5563 30.2082 12.6839 25.3707 8.79939 25.4993 8.8871 19.7755 5.60405 19.9047 5.6663 13.5163 3.13509 13.6527 3.17814 6.82116 1.54914 6.97166 1.57309-0.0814531 0.996677ZM68.0629 46.5527 75.6271 51.3258 67.2701 54.5133Z" transform="matrix(1.00024 0 0 -1 271 171.297)"/><path d="M412.001 118.971 417.449 118.974 422.202 118.983 424.102 118.988 425.567 118.995 426.518 119.002 426.858 119.009 427.192 119.016 427.178 119.016 428.12 119.022 429.58 119.029 431.477 119.034 435.008 119.04 435.005 121.04 431.471 121.034 429.571 121.029 428.105 121.022 427.156 121.016 426.816 121.008 426.483 121.001 426.497 121.002 425.558 120.995 424.096 120.988 422.199 120.983 417.448 120.974 411.999 120.971ZM433.677 116.038 441.675 120.046 433.669 124.038Z"/><path d="M483.5 165.46C483.5 159.386 488.425 154.463 494.5 154.463L538.5 154.463C544.575 154.463 549.5 159.386 549.5 165.46L549.5 223.446C549.5 229.52 544.575 234.443 538.5 234.443L494.5 234.443C488.425 234.443 483.5 229.52 483.5 223.446Z" stroke="#172C51" stroke-width="1.33366" stroke-miterlimit="8" stroke-dasharray="5.33462 4.00097" fill="#FFFFFF" fill-rule="evenodd"/><text font-family="Calibri,Calibri_MSFontService,sans-serif" font-weight="700" font-size="14.6667" transform="matrix(1 0 0 0.999758 495.874 173)">RGB</text><text font-family="Calibri,Calibri_MSFontService,sans-serif" font-weight="700" font-size="14.6667" transform="matrix(1 0 0 0.999758 521.713 173)">-</text><text font-family="Calibri,Calibri_MSFontService,sans-serif" font-weight="700" font-size="14.6667" transform="matrix(1 0 0 0.999758 526.214 173)">D</text><text font-family="Calibri,Calibri_MSFontService,sans-serif" font-weight="700" font-size="14.6667" transform="matrix(1 0 0 0.999758 508.957 190)">↓</text><text font-family="Calibri,Calibri_MSFontService,sans-serif" font-weight="700" font-size="14.6667" transform="matrix(1 0 0 0.999758 499.454 208)">Point</text><text font-family="Calibri,Calibri_MSFontService,sans-serif" font-weight="700" font-size="14.6667" transform="matrix(1 0 0 0.999758 498.121 226)">Cloud</text><path d="M485.081 111.976 488.04 112.216 491.042 112.93 493.979 114.076 496.852 115.629 502.19 119.749 506.966 125.084 510.989 131.376 514.093 138.405 516.102 146.802 514.156 147.267 512.169 138.958 512.227 139.13 509.19 132.254 509.262 132.389 505.324 126.229 505.421 126.357 500.761 121.151 500.895 121.276 495.694 117.262 495.829 117.35 493.082 115.864 493.194 115.916 490.379 114.818 490.511 114.86 487.651 114.179 487.802 114.203 484.919 113.969ZM518.979 145.313 515.787 153.669 511.016 146.103Z"/><path d="M0.0425863-0.999093 10.1847-0.566784 20.2862 0.698193 30.2251 2.7381 39.9231 5.4974 49.3021 8.92093 58.284 12.9539 66.7906 17.5418 74.7436 22.6306 82.0648 28.1669 88.6754 34.0975 94.4963 40.3703 99.4475 46.9336 103.447 53.7359 106.412 60.7257 108.256 67.8491 108.882 74.958 109.501 81.9844 109.473 81.8216 111.277 88.793 111.23 88.6531 114.14 95.5146 114.082 95.3982 118.02 102.095 117.956 101.999 122.842 108.476 122.777 108.398 128.532 114.6 128.466 114.536 135.012 120.408 134.947 120.355 142.204 125.842 142.139 125.797 150.028 130.845 149.964 130.807 158.406 135.36 158.34 135.328 167.256 139.331 167.19 139.304 176.501 142.703 176.431 142.68 186.058 145.42 185.986 145.402 195.85 147.426 195.773 147.414 205.795 148.669 205.714 148.662 209.154 148.809 209.069 150.807 205.587 150.658 195.486 149.393 185.547 147.353 175.849 144.594 166.47 141.171 157.488 137.138 148.982 132.55 141.029 127.461 133.707 121.925 127.097 115.994 121.276 109.721 116.325 103.158 112.325 96.3557 109.36 89.3659 107.516 82.2425 106.89 75.1335 106.271 68.1072 106.299 68.27 104.495 61.2986 104.542 61.4385 101.632 54.577 101.69 54.6934 97.7526 47.9968 97.8163 48.0922 92.9304 41.6155 92.9957 41.6934 87.2405 35.4915 87.3057 35.5557 80.7604 29.6836 80.825 29.7368 73.5685 24.2495 73.6327 24.2942 65.7441 19.2465 65.8083 19.2844 57.3666 14.7314 57.4317 14.7635 48.5158 10.7602 48.5825 10.7873 39.2715 7.38864 39.3408 7.41109 29.7137 4.67198 29.7863 4.68974 19.9222 2.66518 19.999 2.67785 9.97689 1.42281 10.0586 1.42965-0.0425863 0.999093ZM207.95 145.754 215.772 150.092 207.609 153.747Z" transform="matrix(1.00024 0 0 -1 267 344.045)"/><path d="M0.0231516-0.999732 11.6-0.731637 23.1762 0.0628663 34.7058 1.36616 46.1663 3.16119 57.5351 5.43092 68.7898 8.15835 79.9079 11.3265 90.867 14.9184 101.644 18.9171 112.227 23.3093 132.663 33.1847 152.023 44.4216 170.108 56.8756 178.632 63.5282 186.764 70.4303 194.49 77.5713 201.786 84.9345 208.631 92.5033 215.002 100.261 220.875 108.191 226.229 116.278 231.04 124.503 235.285 132.852 238.941 141.307 241.985 149.851 244.393 158.469 246.143 167.141 247.209 175.852 247.293 177.881 245.295 177.963 245.213 175.975 245.219 176.055 244.162 167.423 244.174 167.499 242.44 158.9 242.457 158.971 240.068 150.423 240.089 150.49 237.068 142.009 237.092 142.071 233.461 133.674 233.488 133.731 229.27 125.436 229.299 125.488 224.517 117.311 224.546 117.359 219.222 109.318 219.252 109.361 213.41 101.472 213.44 101.511 207.101 93.791 207.132 93.8271 200.318 86.2929 200.35 86.326 193.085 78.9946 193.116 79.0251 185.422 71.9134 185.454 71.9415 177.353 65.0664 177.385 65.0923 168.901 58.4706 168.949 58.5059 150.92 46.0907 150.985 46.132 131.692 34.9335 131.759 34.969 111.382 25.1225 111.434 25.1457 100.895 20.7716 100.931 20.7856 90.1893 16.8002 90.2257 16.8129 79.3036 13.2331 79.341 13.2446 68.2609 10.0872 68.2994 10.0974 57.0839 7.37945 57.1236 7.38823 45.7952 5.12656 45.8362 5.13387 34.4175 3.34538 34.4599 3.3511 22.9735 2.05268 23.0173 2.05666 11.4857 1.26522 11.531 1.2673-0.0231516 0.999732ZM250.236 176.425 246.569 184.583 242.242 176.755Z" transform="matrix(1.00024 0 0 -1 269 418.527)"/><path d="M589.5 171.459 626.5 171.459 626.5 206.753 615.802 217.447 589.5 217.447Z" fill="#FFFFFF" fill-rule="evenodd"/><path d="M615.802 217.447 617.942 208.892 626.5 206.753Z" fill="#CDCDCD" fill-rule="evenodd"/><path d="M615.802 217.447 617.942 208.892 626.5 206.753 615.802 217.447 589.5 217.447 589.5 171.459 626.5 171.459 626.5 206.753" stroke="#172C51" stroke-width="1.33366" stroke-miterlimit="8" fill="none" fill-rule="evenodd"/><path d="M1.20693e-05-1 7.33951-0.999911 10.7165-0.999812 13.742-0.999685 16.2992-0.999539 18.2707-0.99938 19.5395-0.999216 19.9887-0.999055 20.4377-0.998864 21.7062-0.998686 23.6777-0.998525 26.2348-0.998386 29.2603-0.998271 33.31-0.998186 33.31 1.00181 29.2603 1.00173 26.2347 1.00161 23.6775 1.00147 21.706 1.00131 20.4369 1.00114 19.988 1.00094 19.5393 1.00078 18.2705 1.00062 16.299 1.00046 13.742 1.00031 10.7164 1.00019 7.33948 1.00009-1.20693e-05 1ZM31.9767-3.9982 39.9767 0.00188976 31.9766 4.0018Z" transform="matrix(1.00024 0 0 -1 549 193.955)"/><text font-family="Yu Gothic,Yu Gothic_MSFontService,sans-serif" font-weight="700" font-size="14.6667" transform="matrix(1 0 0 0.999758 578.904 165)">点群</text><text font-family="Calibri,Calibri_MSFontService,sans-serif" font-weight="700" font-size="14.6667" transform="matrix(1 0 0 0.999758 608.245 165)">(.ply)</text><path d="M235.5 228.445 273.5 228.445 273.5 263.45 262.513 274.434 235.5 274.434Z" fill="#FFFFFF" fill-rule="evenodd"/><path d="M262.513 274.434 264.711 265.647 273.5 263.45Z" fill="#CDCDCD" fill-rule="evenodd"/><path d="M262.513 274.434 264.711 265.647 273.5 263.45 262.513 274.434 235.5 274.434 235.5 228.445 273.5 228.445 273.5 263.45" stroke="#172C51" stroke-width="1.33366" stroke-miterlimit="8" fill="none" fill-rule="evenodd"/><path d="M229.5 234.443 267.5 234.443 267.5 269.448 256.513 280.432 229.5 280.432Z" fill="#FFFFFF" fill-rule="evenodd"/><path d="M256.513 280.432 258.711 271.645 267.5 269.448Z" fill="#CDCDCD" fill-rule="evenodd"/><path d="M256.513 280.432 258.711 271.645 267.5 269.448 256.513 280.432 229.5 280.432 229.5 234.443 267.5 234.443 267.5 269.448" stroke="#172C51" stroke-width="1.33366" stroke-miterlimit="8" fill="none" fill-rule="evenodd"/><path d="M224.5 241.442 261.5 241.442 261.5 276.736 250.803 287.431 224.5 287.431Z" fill="#FFFFFF" fill-rule="evenodd"/><path d="M250.803 287.431 252.942 278.875 261.5 276.736Z" fill="#CDCDCD" fill-rule="evenodd"/><path d="M250.803 287.431 252.942 278.875 261.5 276.736 250.803 287.431 224.5 287.431 224.5 241.442 261.5 241.442 261.5 276.736" stroke="#172C51" stroke-width="1.33366" stroke-miterlimit="8" fill="none" fill-rule="evenodd"/><text font-family="Calibri,Calibri_MSFontService,sans-serif" font-weight="700" font-size="14.6667" transform="matrix(1 0 0 0.999758 231.192 254)">336</text><text font-family="Yu Gothic,Yu Gothic_MSFontService,sans-serif" font-weight="700" font-size="14.6667" transform="matrix(1 0 0 0.999758 235.107 266)">×</text><text font-family="Calibri,Calibri_MSFontService,sans-serif" font-weight="700" font-size="14.6667" transform="matrix(1 0 0 0.999758 231.192 278)">504</text><text font-family="Calibri,Calibri_MSFontService,sans-serif" font-weight="700" font-size="14.6667" transform="matrix(1 0 0 0.999758 215.17 224)">Conf</text><text font-family="Yu Gothic,Yu Gothic_MSFontService,sans-serif" font-weight="700" font-size="14.6667" transform="matrix(1 0 0 0.999758 243.343 224)">画像群</text><path d="M156.166 77.9948 159.46 78.5489 162.817 80.2076 166.042 82.8197 169.138 86.2956 172.101 90.5649 174.922 95.5632 177.583 101.227 180.064 107.491 182.342 114.29 184.395 121.559 186.2 129.231 187.733 137.25 189.875 153.992 190.441 162.622 190.635 171.288 190.828 179.932 190.826 179.889 191.388 188.466 191.382 188.405 193.517 205.085 193.508 205.024 195.031 212.993 195.022 212.952 196.816 220.582 196.805 220.539 198.846 227.763 198.832 227.717 201.094 234.469 201.075 234.418 203.535 240.628 203.51 240.571 206.142 246.173 206.107 246.106 208.887 251.032 208.838 250.953 211.74 255.134 211.666 255.04 214.667 258.409 214.466 258.237 217.633 260.301 216.541 261.976 213.262 259.839 210.131 256.324 207.168 252.055 204.347 247.057 201.686 241.393 199.205 235.129 196.927 228.33 194.874 221.061 193.07 213.389 191.537 205.37 189.394 188.628 188.828 179.998 188.635 171.332 188.442 162.688 188.444 162.731 187.881 154.154 187.887 154.215 185.752 137.535 185.762 137.596 184.239 129.627 184.247 129.668 182.453 122.038 182.464 122.081 180.424 114.857 180.438 114.903 178.175 108.151 178.194 108.202 175.735 101.992 175.759 102.049 173.127 96.4473 173.162 96.5135 170.382 91.5882 170.431 91.667 167.529 87.4856 167.603 87.5804 164.602 84.2105 164.719 84.3225 161.644 81.8317 161.83 81.9512 158.706 80.4071 158.983 80.4968 155.834 79.967ZM217.351 256.93 223.268 263.639 214.35 264.346Z"/><text font-family="Yu Gothic,Yu Gothic_MSFontService,sans-serif" font-weight="700" font-size="14.6667" transform="matrix(1 0 0 0.999758 274.321 252)">未使用</text><path d="M532.5 309.999C532.5 308.578 533.652 307.426 535.074 307.426L678.926 307.426C680.348 307.426 681.5 308.578 681.5 309.999L681.5 328.847C681.5 330.268 680.348 331.42 678.926 331.42L535.074 331.42C533.652 331.42 532.5 330.268 532.5 328.847Z" stroke="#172C51" stroke-width="1.33366" stroke-miterlimit="8" fill="#DEEBF7" fill-rule="evenodd"/><text font-family="Calibri,Calibri_MSFontService,sans-serif" font-weight="700" font-size="14.6667" transform="matrix(1 0 0 0.999758 547.537 326)">o3d_display_ply.py</text><rect x="605.5" y="423.398" width="5.00006" height="19.9952" stroke="#172C51" stroke-width="1.33366" stroke-miterlimit="8" fill="#FFFFFF"/><rect x="564.5" y="368.411" width="86" height="57.9859" stroke="#172C51" stroke-width="1.33366" stroke-miterlimit="8" fill="#FFFFFF"/><rect x="595.5" y="439.394" width="27" height="6.99832" stroke="#172C51" stroke-width="1.33366" stroke-miterlimit="8" fill="#FFFFFF"/><rect x="567.5" y="371.41" width="80" height="50.9876" stroke="#172C51" stroke-width="1.33366" stroke-miterlimit="8" fill="#FFFFFF"/><path d="M608.617 216.948 608.61 225.283 608.591 233.358 608.56 240.909 608.521 247.675 608.474 253.394 608.449 255.78 608.422 257.808 608.394 259.444 608.366 260.66 608.336 261.452 608.302 261.745 608.274 262.002 608.279 261.928 608.25 262.675 608.251 262.66 608.223 263.866 608.223 263.859 608.195 265.49 608.195 265.487 608.169 267.51 608.143 269.892 608.097 275.606 608.057 282.367 608.027 289.915 608.007 297.986 608.006 299.653 606.005 299.651 606.007 297.982 606.026 289.907 606.057 282.356 606.096 275.589 606.143 269.87 606.168 267.484 606.195 265.458 606.223 263.822 606.251 262.606 606.282 261.814 606.315 261.521 606.344 261.265 606.338 261.339 606.367 260.591 606.366 260.606 606.394 259.401 606.394 259.407 606.422 257.776 606.422 257.78 606.448 255.759 606.474 253.377 606.521 247.663 606.56 240.901 606.59 233.353 606.61 225.282 606.617 216.947ZM611.008 298.322 607 306.319 603.006 298.316Z"/><path d="M0.0023691-0.999997 6.81605-0.983855 9.952-0.965322 12.7645-0.941265 15.1421-0.912787 16.9803-0.880915 18.1912-0.84603 18.6353-0.808696 19.052-0.773685 18.997-0.776782 20.1746-0.742866 20.1632-0.74313 21.9929-0.711411 21.9876-0.71149 24.3609-0.683069 24.3575-0.683104 27.1656-0.659083 27.1617-0.659109 30.4411-0.643749 30.4318 1.35623 27.1504 1.34086 24.3386 1.31681 21.961 1.28834 20.1228 1.25647 18.9119 1.2216 18.4678 1.18427 18.0511 1.14925 18.1061 1.15235 16.9285 1.11842 16.9399 1.11869 15.1101 1.08696 15.1155 1.08704 12.7422 1.05861 12.7456 1.05865 9.94018 1.03464 6.80599 1.01612 6.80953 1.01614-0.0023691 0.999997ZM29.1147-3.6476 37.1031 0.375538 29.0916 4.35236Z" transform="matrix(1.83741e-16 1 1.00024 -1.83697e-16 607 330.92)"/></g></svg>