<svg width="869" height="463" xmlns="http://www.w3.org/2000/svg" xmlns:xlink="http://www.w3.org/1999/xlink" overflow="hidden"><defs><clipPath id="clip0"><rect x="0" y="0" width="869" height="463"/></clipPath></defs><g clip-path="url(#clip0)"><rect x="0" y="0" width="869" height="463.178" fill="#FFFFFF"/><path d="M336.5 23.5256C336.5 15.7815 342.775 9.50362 350.517 9.50362L572.483 9.50362C580.225 9.50362 586.5 15.7815 586.5 23.5256L586.5 240.576C586.5 248.32 580.225 254.598 572.483 254.598L350.517 254.598C342.775 254.598 336.5 248.32 336.5 240.576Z" stroke="#172C51" stroke-width="1.33282" stroke-miterlimit="8" fill="#DEEBF7" fill-rule="evenodd"/><text font-family="Calibri,Calibri_MSFontService,sans-serif" font-weight="700" font-size="14.6667" transform="matrix(1 0 0 1.00038 421.731 32)">Rgbd2Pcd</text><text font-family="Calibri,Calibri_MSFontService,sans-serif" font-weight="700" font-size="14.6667" transform="matrix(1 0 0 1.00038 482.041 32)">.py</text><path d="M35.5 57.5221 72.5 57.5221 72.5 92.8382 61.8025 103.54 35.5 103.54Z" fill="#FFFFFF" fill-rule="evenodd"/><path d="M61.8025 103.54 63.942 94.9785 72.5 92.8382Z" fill="#CDCDCD" fill-rule="evenodd"/><path d="M61.8025 103.54 63.942 94.9785 72.5 92.8382 61.8025 103.54 35.5 103.54 35.5 57.5221 72.5 57.5221 72.5 92.8382" stroke="#172C51" stroke-width="1.33282" stroke-miterlimit="8" fill="none" fill-rule="evenodd"/><path d="M29.5 64.5247 66.5 64.5247 66.5 99.8409 55.8025 110.542 29.5 110.542Z" fill="#FFFFFF" fill-rule="evenodd"/><path d="M55.8025 110.542 57.942 101.981 66.5 99.8409Z" fill="#CDCDCD" fill-rule="evenodd"/><path d="M55.8025 110.542 57.942 101.981 66.5 99.8409 55.8025 110.542 29.5 110.542 29.5 64.5247 66.5 64.5247 66.5 99.8409" stroke="#172C51" stroke-width="1.33282" stroke-miterlimit="8" fill="none" fill-rule="evenodd"/><path d="M23.5 70.527 61.5 70.527 61.5 105.554 50.5134 116.545 23.5 116.545Z" fill="#FFFFFF" fill-rule="evenodd"/><path d="M50.5134 116.545 52.7107 107.752 61.5 105.554Z" fill="#CDCDCD" fill-rule="evenodd"/><path d="M50.5134 116.545 52.7107 107.752 61.5 105.554 50.5134 116.545 23.5 116.545 23.5 70.527 61.5 70.527 61.5 105.554" stroke="#172C51" stroke-width="1.33282" stroke-miterlimit="8" fill="none" fill-rule="evenodd"/><text font-family="Calibri,Calibri_MSFontService,sans-serif" font-weight="700" font-size="14.6667" transform="matrix(1 0 0 1.00038 17.2725 52)">RGB</text><text font-family="Yu Gothic,Yu Gothic_MSFontService,sans-serif" font-weight="700" font-size="14.6667" transform="matrix(1 0 0 1.00038 43.096 52)">画像群</text><path d="M99.5 65.1918C99.5 60.956 102.933 57.5221 107.167 57.5221L157.833 57.5221C162.067 57.5221 165.5 60.956 165.5 65.1918L165.5 95.87C165.5 100.106 162.067 103.54 157.833 103.54L107.167 103.54C102.933 103.54 99.5 100.106 99.5 95.87Z" stroke="#172C51" stroke-width="1.33282" stroke-miterlimit="8" fill="#DEEBF7" fill-rule="evenodd"/><text font-family="Calibri,Calibri_MSFontService,sans-serif" font-weight="700" font-size="14.6667" transform="matrix(1 0 0 1.00038 105.708 76)">ExecDA3</text><text font-family="Calibri,Calibri_MSFontService,sans-serif" font-weight="700" font-size="14.6667" transform="matrix(1 0 0 1.00038 122.701 93)">.</text><text font-family="Calibri,Calibri_MSFontService,sans-serif" font-weight="700" font-size="14.6667" transform="matrix(1 0 0 1.00038 126.699 93)">py</text><path d="M251.5 44.5171 288.5 44.5171 288.5 79.8332 277.803 90.5347 251.5 90.5347Z" fill="#FFFFFF" fill-rule="evenodd"/><path d="M277.803 90.5347 279.942 81.9735 288.5 79.8332Z" fill="#CDCDCD" fill-rule="evenodd"/><path d="M277.803 90.5347 279.942 81.9735 288.5 79.8332 277.803 90.5347 251.5 90.5347 251.5 44.5171 288.5 44.5171 288.5 79.8332" stroke="#172C51" stroke-width="1.33282" stroke-miterlimit="8" fill="none" fill-rule="evenodd"/><path d="M245.5 50.5194 283.5 50.5194 283.5 85.5462 272.513 96.537 245.5 96.537Z" fill="#FFFFFF" fill-rule="evenodd"/><path d="M272.513 96.537 274.711 87.7444 283.5 85.5462Z" fill="#CDCDCD" fill-rule="evenodd"/><path d="M272.513 96.537 274.711 87.7444 283.5 85.5462 272.513 96.537 245.5 96.537 245.5 50.5194 283.5 50.5194 283.5 85.5462" stroke="#172C51" stroke-width="1.33282" stroke-miterlimit="8" fill="none" fill-rule="evenodd"/><path d="M240.5 57.5221 277.5 57.5221 277.5 92.8382 266.803 103.54 240.5 103.54Z" fill="#FFFFFF" fill-rule="evenodd"/><path d="M266.803 103.54 268.942 94.9785 277.5 92.8382Z" fill="#CDCDCD" fill-rule="evenodd"/><path d="M266.803 103.54 268.942 94.9785 277.5 92.8382 266.803 103.54 240.5 103.54 240.5 57.5221 277.5 57.5221 277.5 92.8382" stroke="#172C51" stroke-width="1.33282" stroke-miterlimit="8" fill="none" fill-rule="evenodd"/><text font-family="Calibri,Calibri_MSFontService,sans-serif" font-weight="700" font-size="14.6667" transform="matrix(1 0 0 1.00038 246.942 71)">336</text><text font-family="Yu Gothic,Yu Gothic_MSFontService,sans-serif" font-weight="700" font-size="14.6667" transform="matrix(1 0 0 1.00038 250.854 83)">×</text><text font-family="Calibri,Calibri_MSFontService,sans-serif" font-weight="700" font-size="14.6667" transform="matrix(1 0 0 1.00038 246.942 95)">504</text><text font-family="Calibri,Calibri_MSFontService,sans-serif" font-weight="700" font-size="14.6667" transform="matrix(1 0 0 1.00038 227.389 21)">processed</text><text font-family="Calibri,Calibri_MSFontService,sans-serif" font-weight="700" font-size="14.6667" transform="matrix(1 0 0 1.00038 227.389 38)">RGB</text><text font-family="Yu Gothic,Yu Gothic_MSFontService,sans-serif" font-weight="700" font-size="14.6667" transform="matrix(1 0 0 1.00038 253.213 38)">画像群</text><path d="M247.5 143.555 285.5 143.555 285.5 178.582 274.513 189.573 247.5 189.573Z" fill="#FFFFFF" fill-rule="evenodd"/><path d="M274.513 189.573 276.711 180.78 285.5 178.582Z" fill="#CDCDCD" fill-rule="evenodd"/><path d="M274.513 189.573 276.711 180.78 285.5 178.582 274.513 189.573 247.5 189.573 247.5 143.555 285.5 143.555 285.5 178.582" stroke="#172C51" stroke-width="1.33282" stroke-miterlimit="8" fill="none" fill-rule="evenodd"/><path d="M242.5 149.557 279.5 149.557 279.5 184.873 268.803 195.575 242.5 195.575Z" fill="#FFFFFF" fill-rule="evenodd"/><path d="M268.803 195.575 270.942 187.014 279.5 184.873Z" fill="#CDCDCD" fill-rule="evenodd"/><path d="M268.803 195.575 270.942 187.014 279.5 184.873 268.803 195.575 242.5 195.575 242.5 149.557 279.5 149.557 279.5 184.873" stroke="#172C51" stroke-width="1.33282" stroke-miterlimit="8" fill="none" fill-rule="evenodd"/><path d="M236.5 156.56 273.5 156.56 273.5 191.876 262.803 202.578 236.5 202.578Z" fill="#FFFFFF" fill-rule="evenodd"/><path d="M262.803 202.578 264.942 194.016 273.5 191.876Z" fill="#CDCDCD" fill-rule="evenodd"/><path d="M262.803 202.578 264.942 194.016 273.5 191.876 262.803 202.578 236.5 202.578 236.5 156.56 273.5 156.56 273.5 191.876" stroke="#172C51" stroke-width="1.33282" stroke-miterlimit="8" fill="none" fill-rule="evenodd"/><text font-family="Calibri,Calibri_MSFontService,sans-serif" font-weight="700" font-size="14.6667" transform="matrix(1 0 0 1.00038 243.363 170)">336</text><text font-family="Yu Gothic,Yu Gothic_MSFontService,sans-serif" font-weight="700" font-size="14.6667" transform="matrix(1 0 0 1.00038 247.275 182)">×</text><text font-family="Calibri,Calibri_MSFontService,sans-serif" font-weight="700" font-size="14.6667" transform="matrix(1 0 0 1.00038 243.363 194)">504</text><text font-family="Calibri,Calibri_MSFontService,sans-serif" font-weight="700" font-size="14.6667" transform="matrix(1 0 0 1.00038 220.294 139)">Depth</text><text font-family="Yu Gothic,Yu Gothic_MSFontService,sans-serif" font-weight="700" font-size="14.6667" transform="matrix(1 0 0 1.00038 257.613 139)">画像群</text><path d="M244.5 316.621 281.5 316.621 281.5 351.938 270.803 362.639 244.5 362.639Z" fill="#FFFFFF" fill-rule="evenodd"/><path d="M270.803 362.639 272.942 354.078 281.5 351.938Z" fill="#CDCDCD" fill-rule="evenodd"/><path d="M270.803 362.639 272.942 354.078 281.5 351.938 270.803 362.639 244.5 362.639 244.5 316.621 281.5 316.621 281.5 351.938" stroke="#172C51" stroke-width="1.33282" stroke-miterlimit="8" fill="none" fill-rule="evenodd"/><path d="M238.5 322.624 275.5 322.624 275.5 357.94 264.803 368.641 238.5 368.641Z" fill="#FFFFFF" fill-rule="evenodd"/><path d="M264.803 368.641 266.942 360.08 275.5 357.94Z" fill="#CDCDCD" fill-rule="evenodd"/><path d="M264.803 368.641 266.942 360.08 275.5 357.94 264.803 368.641 238.5 368.641 238.5 322.624 275.5 322.624 275.5 357.94" stroke="#172C51" stroke-width="1.33282" stroke-miterlimit="8" fill="none" fill-rule="evenodd"/><path d="M232.5 329.626 270.5 329.626 270.5 364.653 259.513 375.644 232.5 375.644Z" fill="#FFFFFF" fill-rule="evenodd"/><path d="M259.513 375.644 261.711 366.851 270.5 364.653Z" fill="#CDCDCD" fill-rule="evenodd"/><path d="M259.513 375.644 261.711 366.851 270.5 364.653 259.513 375.644 232.5 375.644 232.5 329.626 270.5 329.626 270.5 364.653" stroke="#172C51" stroke-width="1.33282" stroke-miterlimit="8" fill="none" fill-rule="evenodd"/><text font-family="Calibri,Calibri_MSFontService,sans-serif" font-weight="700" font-size="14.6667" transform="matrix(1 0 0 1.00038 240.115 352)">3x3</text><text font-family="Yu Gothic,Yu Gothic_MSFontService,sans-serif" font-weight="700" font-size="14.6667" transform="matrix(1 0 0 1.00038 219.798 313)">内部パラメータ群</text><path d="M240.5 397.652 277.5 397.652 277.5 432.969 266.803 443.67 240.5 443.67Z" fill="#FFFFFF" fill-rule="evenodd"/><path d="M266.803 443.67 268.942 435.109 277.5 432.969Z" fill="#CDCDCD" fill-rule="evenodd"/><path d="M266.803 443.67 268.942 435.109 277.5 432.969 266.803 443.67 240.5 443.67 240.5 397.652 277.5 397.652 277.5 432.969" stroke="#172C51" stroke-width="1.33282" stroke-miterlimit="8" fill="none" fill-rule="evenodd"/><path d="M234.5 403.655 272.5 403.655 272.5 438.682 261.513 449.672 234.5 449.672Z" fill="#FFFFFF" fill-rule="evenodd"/><path d="M261.513 449.672 263.711 440.88 272.5 438.682Z" fill="#CDCDCD" fill-rule="evenodd"/><path d="M261.513 449.672 263.711 440.88 272.5 438.682 261.513 449.672 234.5 449.672 234.5 403.655 272.5 403.655 272.5 438.682" stroke="#172C51" stroke-width="1.33282" stroke-miterlimit="8" fill="none" fill-rule="evenodd"/><path d="M229.5 410.657 266.5 410.657 266.5 445.974 255.803 456.675 229.5 456.675Z" fill="#FFFFFF" fill-rule="evenodd"/><path d="M255.803 456.675 257.942 448.114 266.5 445.974Z" fill="#CDCDCD" fill-rule="evenodd"/><path d="M255.803 456.675 257.942 448.114 266.5 445.974 255.803 456.675 229.5 456.675 229.5 410.657 266.5 410.657 266.5 445.974" stroke="#172C51" stroke-width="1.33282" stroke-miterlimit="8" fill="none" fill-rule="evenodd"/><text font-family="Calibri,Calibri_MSFontService,sans-serif" font-weight="700" font-size="14.6667" transform="matrix(1 0 0 1.00038 236.536 433)">3x4</text><text font-family="Yu Gothic,Yu Gothic_MSFontService,sans-serif" font-weight="700" font-size="14.6667" transform="matrix(1 0 0 1.00038 213.11 394)">外部パラメータ群</text><path d="M0.000599523-0.999616 4.99035-0.996624 9.34433-0.98874 11.084-0.983475 12.4257-0.977603 13.2981-0.971267 13.6103-0.964655 13.9156-0.958159 13.9016-0.958358 14.7642-0.952075 16.1016-0.946223 17.8387-0.940973 20.5155-0.937146 20.5126 1.06208 17.8326 1.05825 16.0929 1.05299 14.7496 1.0471 13.8801 1.04077 13.568 1.03413 13.2627 1.02767 13.2766 1.02786 12.4169 1.02161 11.0779 1.01575 9.34071 1.01049 4.98916 1.00261-0.000599523 0.999616ZM19.1854-3.9374 27.1781 0.0694747 19.177 4.05953Z" transform="matrix(1 0 0 -1.00038 72 80.1002)"/><path d="M0.000524513-0.999617 6.9457-0.995972 13.6737-0.985672 19.9654-0.969667 25.6026-0.948907 30.3676-0.924342 34.044-0.896905 35.4067-0.882388 36.418-0.867454 37.0688-0.851701 37.3058-0.834851 37.5193-0.819685 37.4726-0.821905 38.0953-0.806849 38.0859-0.807032 39.0904-0.792212 39.0863-0.792264 40.4454-0.777798 40.4422-0.777827 44.1148-0.750434 48.8759-0.725903 54.5106-0.70516 60.8001-0.689165 67.807-0.679604 67.8042 1.31963 60.795 1.31006 54.5032 1.29406 48.8656 1.2733 44.0998 1.24874 40.4257 1.22134 39.063 1.20683 38.0517 1.19191 37.401 1.17618 37.164 1.15935 36.9503 1.14416 36.997 1.14638 36.3743 1.13131 36.3838 1.13149 35.3793 1.11666 35.3834 1.11671 34.0243 1.10223 34.0275 1.10226 30.3573 1.07486 25.5953 1.05031 19.9603 1.02956 13.6706 1.01356 6.94465 1.00326-0.000524513 0.999617ZM66.4754-3.67933 74.4697 0.32439 66.4701 4.3176Z" transform="matrix(1 0 0 -1.00038 165 80.3552)"/><path d="M165.085 79.0343 168.484 79.3246 171.925 80.188 175.292 81.5728 178.559 83.436 181.705 85.7369 184.722 88.4514 190.182 94.8842 194.796 102.495 198.35 110.98 200.633 120.036 201.239 124.727 201.444 129.395 201.647 134.021 201.64 133.937 202.233 138.527 202.211 138.41 204.461 147.337 204.413 147.195 207.909 155.542 207.842 155.41 212.376 162.889 212.284 162.76 217.649 169.081 217.555 168.985 220.485 171.62 220.406 171.557 223.465 173.794 223.37 173.733 226.533 175.536 226.352 175.455 229.677 176.554 229.049 178.453 225.63 177.323 222.331 175.442 219.185 173.141 216.169 170.427 210.708 163.994 206.094 156.384 202.54 147.898 200.258 138.842 199.652 134.151 199.447 129.483 199.243 124.857 199.25 124.941 198.658 120.351 198.68 120.468 196.43 111.541 196.477 111.683 192.981 103.336 193.048 103.468 188.514 95.9894 188.607 96.118 183.241 89.7972 183.335 89.8935 180.406 87.2578 180.484 87.3215 177.425 85.0839 177.52 85.1455 174.357 83.3421 174.472 83.3982 171.231 82.0653 171.368 82.1104 168.075 81.2841 168.234 81.3105 164.915 81.027ZM228.863 173.317 235.89 178.847 227.252 181.153Z"/><path d="M165.149 79.0419 166.587 79.2594 168.149 79.9599 170.937 82.414 173.589 86.2403 176.122 91.307 178.549 97.5367 180.863 104.843 183.05 113.133 185.09 122.311 186.965 132.282 188.656 142.946 190.142 154.205 191.404 165.961 192.42 178.115 193.172 190.574 193.797 215.951 194.023 228.683 194.022 228.648 194.681 241.277 194.679 241.243 195.743 253.673 195.739 253.64 197.179 265.771 197.174 265.738 198.96 277.47 198.954 277.437 201.057 288.671 201.05 288.636 203.442 299.273 203.433 299.234 206.085 309.174 206.072 309.132 208.955 318.275 208.938 318.225 212.023 326.473 211.999 326.413 215.257 333.665 215.221 333.591 218.623 339.748 218.564 339.653 222.082 344.615 221.92 344.436 226.729 348.591 225.423 350.104 220.522 345.871 216.901 340.765 213.451 334.523 210.162 327.204 207.057 318.902 204.159 309.712 201.496 299.731 199.096 289.057 196.986 277.788 195.195 266.023 193.752 253.86 192.686 241.397 192.025 228.735 191.798 215.99 191.798 215.997 191.174 190.641 191.175 190.676 190.425 178.247 190.427 178.27 189.412 166.14 189.415 166.163 188.156 154.431 188.159 154.455 186.676 143.22 186.68 143.246 184.993 132.609 184.998 132.637 183.128 122.697 183.135 122.73 181.102 113.586 181.112 113.624 178.937 105.377 178.95 105.424 176.653 98.1718 176.675 98.2329 174.276 92.0763 174.313 92.1604 171.832 87.1987 171.905 87.3212 169.363 83.6538 169.524 83.8347 166.942 81.5613 167.194 81.7231 165.894 81.1403 166.153 81.2165 164.851 81.0194ZM226.385 345.142 232.226 351.914 223.307 352.526Z"/><path d="M165.239 79.0597 166.468 79.3627 167.762 80.3087 168.921 81.7043 170.011 83.523 171.064 85.7623 172.093 88.4172 173.101 91.4787 174.091 94.9349 175.062 98.7723 176.014 102.981 177.849 112.425 179.585 123.159 181.206 135.05 182.697 147.972 184.041 161.797 185.223 176.395 186.226 191.639 187.035 207.4 187.632 223.552 188.13 256.477 188.368 273 188.367 272.972 189.061 289.365 189.06 289.338 190.18 305.472 190.178 305.445 191.693 321.191 191.69 321.165 193.57 336.394 193.566 336.366 195.781 350.949 195.776 350.92 198.295 364.728 198.289 364.696 201.081 377.599 201.072 377.562 204.108 389.431 204.096 389.389 207.345 400.094 207.327 400.042 210.758 409.456 210.74 409.407 212.514 413.589 212.497 413.551 214.305 417.361 214.283 417.316 216.122 420.739 216.092 420.686 217.957 423.705 217.916 423.642 219.804 426.241 219.745 426.167 221.652 428.329 221.423 428.137 223.167 429.2 222.126 430.908 220.254 429.766 218.215 427.455 216.277 424.788 214.375 421.712 212.51 418.241 210.682 414.39 208.889 410.165 205.44 400.702 202.177 389.948 199.131 378.04 196.331 365.103 193.807 351.264 191.588 336.653 189.704 321.396 188.186 305.623 187.064 289.463 186.369 273.043 186.131 256.508 185.633 223.593 185.634 223.615 185.037 207.481 185.038 207.495 184.23 191.749 184.231 191.764 183.229 176.534 183.23 176.549 182.049 161.966 182.051 161.982 180.708 148.175 180.71 148.193 179.221 135.29 179.224 135.31 177.606 123.441 177.61 123.466 175.878 112.76 175.883 112.791 174.055 103.378 174.061 103.408 173.115 99.2261 173.121 99.2508 172.157 95.4407 172.165 95.4708 171.185 92.0485 171.196 92.0861 170.202 89.0677 170.219 89.116 169.213 86.5177 169.24 86.582 168.223 84.4198 168.271 84.5084 167.246 82.7986 167.334 82.9234 166.303 81.6821 166.482 81.8505 165.447 81.0938 165.798 81.2574 164.761 81.0016ZM223.186 425.872 228.647 432.954 219.707 433.076Z"/><path d="M462.5 85.5328 499.5 85.5328 499.5 120.849 488.803 131.55 462.5 131.55Z" fill="#FFFFFF" fill-rule="evenodd"/><path d="M488.803 131.55 490.942 122.989 499.5 120.849Z" fill="#CDCDCD" fill-rule="evenodd"/><path d="M488.803 131.55 490.942 122.989 499.5 120.849 488.803 131.55 462.5 131.55 462.5 85.5328 499.5 85.5328 499.5 120.849" stroke="#172C51" stroke-width="1.33282" stroke-miterlimit="8" stroke-dasharray="5.33129 3.99847" fill="none" fill-rule="evenodd"/><path d="M456.5 92.5354 493.5 92.5354 493.5 127.852 482.803 138.553 456.5 138.553Z" fill="#FFFFFF" fill-rule="evenodd"/><path d="M482.803 138.553 484.942 129.992 493.5 127.852Z" fill="#CDCDCD" fill-rule="evenodd"/><path d="M482.803 138.553 484.942 129.992 493.5 127.852 482.803 138.553 456.5 138.553 456.5 92.5354 493.5 92.5354 493.5 127.852" stroke="#172C51" stroke-width="1.33282" stroke-miterlimit="8" stroke-dasharray="5.33129 3.99847" fill="none" fill-rule="evenodd"/><path d="M450.5 98.5377 487.5 98.5377 487.5 133.854 476.802 144.555 450.5 144.555Z" fill="#FFFFFF" fill-rule="evenodd"/><path d="M476.802 144.555 478.942 135.994 487.5 133.854Z" fill="#CDCDCD" fill-rule="evenodd"/><path d="M476.802 144.555 478.942 135.994 487.5 133.854 476.802 144.555 450.5 144.555 450.5 98.5377 487.5 98.5377 487.5 133.854" stroke="#172C51" stroke-width="1.33282" stroke-miterlimit="8" stroke-dasharray="5.33129 3.99847" fill="none" fill-rule="evenodd"/><text font-family="Calibri,Calibri_MSFontService,sans-serif" font-weight="700" font-size="14.6667" transform="matrix(1 0 0 1.00038 431.567 81)">RGB</text><text font-family="Calibri,Calibri_MSFontService,sans-serif" font-weight="700" font-size="14.6667" transform="matrix(1 0 0 1.00038 457.391 81)">-</text><text font-family="Calibri,Calibri_MSFontService,sans-serif" font-weight="700" font-size="14.6667" transform="matrix(1 0 0 1.00038 461.889 81)">D</text><text font-family="Yu Gothic,Yu Gothic_MSFontService,sans-serif" font-weight="700" font-size="14.6667" transform="matrix(1 0 0 1.00038 471.052 81)">画像群</text><path d="M355.5 106.207C355.5 101.972 358.932 98.5377 363.167 98.5377L412.833 98.5377C417.067 98.5377 420.5 101.972 420.5 106.207L420.5 136.886C420.5 141.122 417.067 144.555 412.833 144.555L363.167 144.555C358.932 144.555 355.5 141.122 355.5 136.886Z" stroke="#172C51" stroke-width="1.33282" stroke-miterlimit="8" stroke-dasharray="5.33129 3.99847" fill="#FFFFFF" fill-rule="evenodd"/><text font-family="Calibri,Calibri_MSFontService,sans-serif" font-weight="700" font-size="14.6667" transform="matrix(1 0 0 1.00038 374.622 112)">RGB</text><text font-family="Yu Gothic,Yu Gothic_MSFontService,sans-serif" font-weight="700" font-size="14.6667" transform="matrix(1 0 0 1.00038 380.199 124)">＋</text><text font-family="Calibri,Calibri_MSFontService,sans-serif" font-weight="700" font-size="14.6667" transform="matrix(1 0 0 1.00038 368.87 136)">Depth</text><path d="M288.098 66.0305 294.372 66.6496 300.529 68.422 306.276 71.1714 311.427 74.7387 315.793 78.9709 319.178 83.7216 321.361 88.8147 321.951 91.4998 322.147 94.1137 322.337 96.6569 322.317 96.5168 322.871 99.0401 322.813 98.8605 324.918 103.768 324.813 103.582 328.083 108.171 327.964 108.033 332.205 112.144 332.078 112.04 337.096 115.515 336.959 115.435 342.559 118.114 342.373 118.047 347.946 119.456 347.456 121.395 341.786 119.962 336.024 117.205 330.873 113.638 326.508 109.406 323.123 104.655 320.939 99.5619 320.349 96.8768 320.153 94.2629 319.963 91.7197 319.984 91.8598 319.429 89.3365 319.487 89.5161 317.383 84.6088 317.487 84.795 314.218 80.206 314.336 80.3437 310.095 76.2321 310.222 76.3363 305.204 72.8614 305.342 72.9413 299.741 70.2622 299.896 70.321 293.907 68.5968 294.085 68.631 287.902 68.0209ZM346.935 116.28 354.3 121.351 345.826 124.202Z"/><path d="M0.0814219-0.996295 7.20796-0.413881 14.1809 1.24883 20.7003 3.83194 26.5519 7.18831 31.5202 11.1779 35.3634 15.6455 36.8206 18.0634 37.8969 20.5389 38.5701 23.0769 38.7946 25.5632 39.0115 27.965 38.9821 27.7986 39.6142 30.1817 39.5648 30.0394 40.5845 32.3849 40.5239 32.2674 41.9035 34.5565 41.8052 34.4206 45.5334 38.7546 45.4015 38.6271 50.2371 42.5101 50.1086 42.4224 55.8301 45.7042 55.701 45.642 62.087 48.1722 61.927 48.1239 69.1751 49.668 68.7585 51.6233 61.4285 50.0617 54.8978 47.4742 49.0462 44.1178 44.0779 40.1282 40.2347 35.6606 38.7775 33.2427 37.7012 30.7673 37.028 28.2293 36.8035 25.743 36.5866 23.3411 36.616 23.5075 35.9838 21.1245 36.0333 21.2667 35.0136 18.9213 35.0742 19.0387 33.6945 16.7496 33.7929 16.8855 30.0647 12.5515 30.1966 12.6791 25.361 8.79601 25.4895 8.88369 19.768 5.6019 19.8971 5.66413 13.5111 3.13389 13.6475 3.17692 6.81855 1.54855 6.96899 1.57249-0.0814219 0.996295ZM68.0368 46.5348 75.5981 51.3061 67.2443 54.4924Z" transform="matrix(1 0 0 -1.00038 279 172.372)"/><path d="M420.001 120.046 425.445 120.05 430.196 120.058 432.094 120.064 433.558 120.07 434.509 120.077 434.849 120.084 435.182 120.091 435.168 120.091 436.11 120.098 437.569 120.104 439.465 120.11 442.993 120.115 442.991 122.115 439.459 122.11 437.561 122.104 436.095 122.098 435.147 122.091 434.807 122.084 434.474 122.077 434.488 122.077 433.549 122.07 432.088 122.064 430.193 122.058 425.444 122.05 419.999 122.046ZM441.663 117.114 449.656 121.122 441.655 125.114Z"/><path d="M491.5 166.564C491.5 160.487 496.425 155.56 502.5 155.56L546.5 155.56C552.575 155.56 557.5 160.487 557.5 166.564L557.5 224.586C557.5 230.663 552.575 235.59 546.5 235.59L502.5 235.59C496.425 235.59 491.5 230.663 491.5 224.586Z" stroke="#172C51" stroke-width="1.33282" stroke-miterlimit="8" stroke-dasharray="5.33129 3.99847" fill="#FFFFFF" fill-rule="evenodd"/><text font-family="Calibri,Calibri_MSFontService,sans-serif" font-weight="700" font-size="14.6667" transform="matrix(1 0 0 1.00038 504.215 174)">RGB</text><text font-family="Calibri,Calibri_MSFontService,sans-serif" font-weight="700" font-size="14.6667" transform="matrix(1 0 0 1.00038 530.038 174)">-</text><text font-family="Calibri,Calibri_MSFontService,sans-serif" font-weight="700" font-size="14.6667" transform="matrix(1 0 0 1.00038 534.536 174)">D</text><text font-family="Calibri,Calibri_MSFontService,sans-serif" font-weight="700" font-size="14.6667" transform="matrix(1 0 0 1.00038 517.29 191)">↓</text><text font-family="Calibri,Calibri_MSFontService,sans-serif" font-weight="700" font-size="14.6667" transform="matrix(1 0 0 1.00038 507.793 209)">Point</text><text font-family="Calibri,Calibri_MSFontService,sans-serif" font-weight="700" font-size="14.6667" transform="matrix(1 0 0 1.00038 506.461 227)">Cloud</text><path d="M493.081 114.047 496.038 114.287 499.038 115.001 501.973 116.147 504.844 117.7 510.179 121.82 514.952 127.155 518.973 133.448 522.075 140.476 524.083 148.874 522.138 149.339 520.152 141.03 520.21 141.201 517.175 134.326 517.247 134.46 513.311 128.3 513.408 128.429 508.751 123.222 508.885 123.347 503.687 119.333 503.822 119.421 501.077 117.936 501.189 117.988 498.376 116.89 498.508 116.931 495.649 116.25 495.8 116.274 492.919 116.041ZM526.958 147.384 523.768 155.74 519 148.174Z"/><path d="M0.04257-0.99871 10.1808-0.566567 20.2784 0.697925 30.2135 2.73705 39.9078 5.49529 49.2832 8.91751 58.2617 12.9489 66.765 17.535 74.715 22.6219 82.0333 28.1561 88.6414 34.0845 94.4601 40.3549 99.4094 46.9156 103.408 53.7153 106.372 60.7024 108.214 67.8231 108.84 74.9293 109.459 81.953 109.431 81.7902 111.235 88.759 111.187 88.6191 114.097 95.478 114.038 95.3616 117.974 102.056 117.911 101.96 122.795 108.435 122.729 108.357 128.482 114.556 128.417 114.492 134.96 120.362 134.895 120.309 142.149 125.794 142.085 125.749 149.971 130.795 149.906 130.757 158.345 135.308 158.28 135.276 167.192 139.278 167.126 139.251 176.433 142.648 176.364 142.626 185.987 145.364 185.915 145.346 195.775 147.37 195.698 147.357 205.716 148.612 205.635 148.605 209.074 148.751 208.989 150.749 205.509 150.601 195.411 149.336 185.476 147.297 175.782 144.539 166.406 141.117 157.428 137.085 148.924 132.499 140.974 127.412 133.656 121.878 127.048 115.95 121.229 109.679 116.28 103.119 112.282 96.3188 109.318 89.3316 107.475 82.211 106.849 75.1047 106.23 68.0811 106.258 68.2438 104.455 61.2751 104.502 61.415 101.593 54.5561 101.651 54.6725 97.7151 47.9784 97.7788 48.0738 92.8947 41.5995 92.96 41.6775 87.2071 35.4779 87.2723 35.542 80.7294 29.6722 80.794 29.7254 73.5403 24.2402 73.6045 24.2849 65.7189 19.2392 65.7831 19.277 57.3446 14.7258 57.4096 14.7579 48.4972 10.7561 48.5639 10.7832 39.2565 7.38581 39.3257 7.40825 29.7023 4.67019 29.7749 4.68794 19.9146 2.66416 19.9914 2.67683 9.97307 1.42227 10.0547 1.42911-0.04257 0.99871ZM207.87 145.699 215.689 150.034 207.529 153.688Z" transform="matrix(1 0 0 -1.00038 275 345.166)"/><path d="M0.0231427-0.999349 11.5956-0.731357 23.1673 0.0628422 34.6925 1.36564 46.1486 3.15998 57.5131 5.42884 68.7635 8.15522 79.8773 11.3221 90.8321 14.9127 101.605 18.9098 112.184 23.3004 132.612 33.172 151.964 44.4046 170.043 56.8538 178.563 63.5039 186.692 70.4033 194.415 77.5416 201.709 84.9019 208.551 92.4678 214.919 100.223 220.791 108.15 226.142 116.233 230.951 124.456 235.195 132.801 238.849 141.253 241.892 149.794 244.3 158.408 246.048 167.077 247.115 175.785 247.198 177.813 245.201 177.895 245.119 175.907 245.125 175.988 244.069 167.358 244.081 167.435 242.347 158.839 242.364 158.91 239.976 150.366 239.997 150.432 236.977 141.955 237.001 142.016 233.372 133.623 233.398 133.68 229.182 125.388 229.211 125.44 224.431 117.266 224.46 117.314 219.138 109.276 219.168 109.319 213.328 101.433 213.358 101.472 207.021 93.755 207.052 93.7911 200.241 86.2598 200.273 86.2929 193.011 78.9644 193.042 78.9948 185.351 71.8858 185.383 71.9139 177.285 65.0414 177.317 65.0673 168.836 58.4482 168.885 58.4835 150.862 46.073 150.927 46.1143 131.641 34.9201 131.708 34.9556 111.339 25.1128 111.391 25.136 100.857 20.7637 100.892 20.7776 90.1547 16.7937 90.1911 16.8065 79.2732 13.228 79.3106 13.2395 68.2347 10.0834 68.2733 10.0935 57.062 7.37662 57.1017 7.3854 45.7776 5.1246 45.8186 5.1319 34.4043 3.3441 34.4467 3.34981 22.9646 2.0519 23.0085 2.05588 11.4813 1.26474 11.5266 1.26682-0.0231427 0.999349ZM250.14 176.357 246.475 184.512 242.15 176.687Z" transform="matrix(1 0 0 -1.00038 277 419.673)"/><path d="M629.5 172.566 666.5 172.566 666.5 207.882 655.802 218.584 629.5 218.584Z" fill="#FFFFFF" fill-rule="evenodd"/><path d="M655.802 218.584 657.942 210.023 666.5 207.882Z" fill="#CDCDCD" fill-rule="evenodd"/><path d="M655.802 218.584 657.942 210.023 666.5 207.882 655.802 218.584 629.5 218.584 629.5 172.566 666.5 172.566 666.5 207.882" stroke="#172C51" stroke-width="1.33282" stroke-miterlimit="8" fill="none" fill-rule="evenodd"/><path d="M2.80145e-06-0.999617 6.72879-0.999598 13.2462-0.999544 19.3408-0.999462 24.8014-0.999354 29.4164-0.999227 32.9745-0.999085 35.2645-0.998934 35.8678-0.998856 36.075-0.998777 36.2819-0.998717 36.885-0.998655 39.1749-0.998529 42.733-0.998406 47.348-0.998292 52.8086-0.998192 58.9032-0.998113 65.4852-0.998066 65.4852 1.00117 58.9032 1.00112 52.8085 1.00104 47.348 1.00094 42.733 1.00083 39.1748 1.0007 36.8848 1.00058 36.2813 1.00052 36.0743 1.00046 35.8676 1.00038 35.2643 1.0003 32.9745 1.00015 29.4163 1.00001 24.8013 0.999879 19.3408 0.999772 13.2462 0.999689 6.72878 0.999635-2.80145e-06 0.999617ZM64.1524-3.99692 72.1493 0.0015742 64.1524 4.00001Z" transform="matrix(1 0 0 -1.00038 557 195.076)"/><text font-family="Yu Gothic,Yu Gothic_MSFontService,sans-serif" font-weight="700" font-size="14.6667" transform="matrix(1 0 0 1.00038 619.381 167)">点群</text><text font-family="Calibri,Calibri_MSFontService,sans-serif" font-weight="700" font-size="14.6667" transform="matrix(1 0 0 1.00038 648.703 167)">(.ply)</text><path d="M244.5 229.588 281.5 229.588 281.5 264.904 270.803 275.606 244.5 275.606Z" fill="#FFFFFF" fill-rule="evenodd"/><path d="M270.803 275.606 272.942 267.044 281.5 264.904Z" fill="#CDCDCD" fill-rule="evenodd"/><path d="M270.803 275.606 272.942 267.044 281.5 264.904 270.803 275.606 244.5 275.606 244.5 229.588 281.5 229.588 281.5 264.904" stroke="#172C51" stroke-width="1.33282" stroke-miterlimit="8" fill="none" fill-rule="evenodd"/><path d="M238.5 235.59 275.5 235.59 275.5 270.906 264.803 281.608 238.5 281.608Z" fill="#FFFFFF" fill-rule="evenodd"/><path d="M264.803 281.608 266.942 273.047 275.5 270.906Z" fill="#CDCDCD" fill-rule="evenodd"/><path d="M264.803 281.608 266.942 273.047 275.5 270.906 264.803 281.608 238.5 281.608 238.5 235.59 275.5 235.59 275.5 270.906" stroke="#172C51" stroke-width="1.33282" stroke-miterlimit="8" fill="none" fill-rule="evenodd"/><path d="M232.5 242.593 270.5 242.593 270.5 277.62 259.513 288.611 232.5 288.611Z" fill="#FFFFFF" fill-rule="evenodd"/><path d="M259.513 288.611 261.711 279.818 270.5 277.62Z" fill="#CDCDCD" fill-rule="evenodd"/><path d="M259.513 288.611 261.711 279.818 270.5 277.62 259.513 288.611 232.5 288.611 232.5 242.593 270.5 242.593 270.5 277.62" stroke="#172C51" stroke-width="1.33282" stroke-miterlimit="8" fill="none" fill-rule="evenodd"/><text font-family="Calibri,Calibri_MSFontService,sans-serif" font-weight="700" font-size="14.6667" transform="matrix(1 0 0 1.00038 239.699 256)">336</text><text font-family="Yu Gothic,Yu Gothic_MSFontService,sans-serif" font-weight="700" font-size="14.6667" transform="matrix(1 0 0 1.00038 243.611 268)">×</text><text font-family="Calibri,Calibri_MSFontService,sans-serif" font-weight="700" font-size="14.6667" transform="matrix(1 0 0 1.00038 239.699 280)">504</text><text font-family="Calibri,Calibri_MSFontService,sans-serif" font-weight="700" font-size="14.6667" transform="matrix(1 0 0 1.00038 223.686 225)">Conf</text><text font-family="Yu Gothic,Yu Gothic_MSFontService,sans-serif" font-weight="700" font-size="14.6667" transform="matrix(1 0 0 1.00038 251.842 225)">画像群</text><path d="M165.166 79.0445 168.458 79.5987 171.813 81.2573 175.036 83.8695 178.129 87.3453 181.091 91.6147 183.91 96.6129 186.57 102.276 189.049 108.54 191.326 115.34 193.378 122.609 195.181 130.281 196.713 138.3 198.854 155.042 199.42 163.671 199.613 172.337 199.806 180.982 199.804 180.939 200.366 189.516 200.36 189.454 202.494 206.135 202.484 206.074 204.007 214.042 203.998 214.001 205.791 221.632 205.78 221.589 207.819 228.813 207.805 228.767 210.066 235.518 210.047 235.468 212.505 241.678 212.48 241.621 215.11 247.222 215.076 247.156 217.854 252.081 217.805 252.003 220.706 256.184 220.631 256.089 223.63 259.459 223.43 259.286 226.595 261.351 225.503 263.026 222.226 260.889 219.098 257.374 216.136 253.105 213.317 248.107 210.658 242.443 208.178 236.179 205.901 229.38 203.85 222.111 202.047 214.439 200.515 206.419 198.373 189.678 197.808 181.048 197.614 172.382 197.422 163.737 197.423 163.781 196.861 155.204 196.867 155.265 194.734 138.585 194.743 138.645 193.221 130.677 193.23 130.718 191.437 123.088 191.448 123.131 189.408 115.906 189.423 115.952 187.162 109.201 187.18 109.252 184.722 103.041 184.747 103.099 182.117 97.497 182.151 97.5633 179.373 92.638 179.422 92.7168 176.521 88.5354 176.596 88.6302 173.597 85.2603 173.714 85.3723 170.641 82.8815 170.827 83.0009 167.704 81.4568 167.981 81.5465 164.834 81.0168ZM226.313 257.98 232.226 264.689 223.314 265.396Z"/><text font-family="Yu Gothic,Yu Gothic_MSFontService,sans-serif" font-weight="700" font-size="14.6667" transform="matrix(1 0 0 1.00038 282.801 253)">未使用</text><path d="M526.5 311.193C526.5 309.771 527.652 308.618 529.074 308.618L671.926 308.618C673.348 308.618 674.5 309.771 674.5 311.193L674.5 330.053C674.5 331.475 673.348 332.628 671.926 332.628L529.074 332.628C527.652 332.628 526.5 331.475 526.5 330.053Z" stroke="#172C51" stroke-width="1.33282" stroke-miterlimit="8" fill="#DEEBF7" fill-rule="evenodd"/><text font-family="Calibri,Calibri_MSFontService,sans-serif" font-weight="700" font-size="14.6667" transform="matrix(1 0 0 1.00038 540.944 327)">o3d_display_ply.py</text><rect x="598.5" y="423.662" width="5" height="20.0077" stroke="#172C51" stroke-width="1.33282" stroke-miterlimit="8" fill="#FFFFFF"/><rect x="558.5" y="369.642" width="85.0001" height="58.0222" stroke="#172C51" stroke-width="1.33282" stroke-miterlimit="8" fill="#FFFFFF"/><rect x="588.5" y="440.669" width="26.9999" height="7.00262" stroke="#172C51" stroke-width="1.33282" stroke-miterlimit="8" fill="#FFFFFF"/><rect x="561.5" y="372.643" width="79.0001" height="51.0196" stroke="#172C51" stroke-width="1.33282" stroke-miterlimit="8" fill="#FFFFFF"/><path d="M648.703 218.148 648.164 226.543 646.628 234.733 644.24 242.397 641.134 249.28 637.452 255.11 635.407 257.582 633.268 259.685 631.032 261.399 628.707 262.684 626.305 263.494 623.967 263.763 621.734 264.019 621.939 263.973 619.723 264.72 619.887 264.648 617.706 265.854 617.831 265.772 615.702 267.403 615.795 267.323 613.737 269.346 613.806 269.271 611.835 271.654 611.91 271.551 608.299 277.268 608.365 277.145 605.314 283.909 605.357 283.795 603.004 291.344 603.032 291.231 601.518 299.304 601.533 299.184 601.425 300.866 599.43 300.738 599.542 298.995 601.078 290.805 603.466 283.142 606.572 276.258 610.254 270.429 612.299 267.956 614.438 265.853 616.674 264.139 618.999 262.854 621.401 262.044 623.739 261.776 625.972 261.519 625.767 261.565 627.983 260.818 627.819 260.89 630 259.685 629.875 259.766 632.004 258.135 631.911 258.216 633.969 256.192 633.9 256.268 635.871 253.884 635.796 253.987 639.407 248.271 639.341 248.394 642.392 241.63 642.349 241.743 644.702 234.194 644.674 234.307 646.188 226.234 646.173 226.354 646.708 218.019ZM604.503 299.728 600 307.455 596.523 299.215Z"/><path d="M0.0023682-0.999614 6.81344-0.983478 9.94819-0.964952 12.7596-0.940904 15.1363-0.912437 16.9738-0.880577 18.1842-0.845706 18.6282-0.808386 19.0447-0.773388 18.9897-0.776485 20.1669-0.742581 20.1554-0.742845 21.9845-0.711138 21.9792-0.711217 24.3515-0.682808 24.3481-0.682843 27.1551-0.658831 27.1513-0.658856 30.4295-0.643503 30.4201 1.35571 27.14 1.34035 24.3293 1.3163 21.9526 1.28784 20.115 1.25599 18.9047 1.22113 18.4607 1.18382 18.0442 1.14881 18.0991 1.15191 16.922 1.11799 16.9334 1.11826 15.1044 1.08654 15.1097 1.08662 12.7373 1.05821 12.7407 1.05824 9.93637 1.03425 6.80338 1.01573 6.80692 1.01575-0.0023682 0.999614ZM29.1035-3.6462 37.0889 0.375394 29.0804 4.35069Z" transform="matrix(1.83697e-16 1.00038 1 -1.83767e-16 600 332.127)"/><path d="M697.5 179.65C697.5 175.738 700.67 172.566 704.581 172.566L771.419 172.566C775.33 172.566 778.5 175.738 778.5 179.65L778.5 211.5C778.5 215.412 775.33 218.584 771.419 218.584L704.581 218.584C700.67 218.584 697.5 215.412 697.5 211.5Z" stroke="#172C51" stroke-width="1.33282" stroke-miterlimit="8" fill="#DEEBF7" fill-rule="evenodd"/><text font-family="Calibri,Calibri_MSFontService,sans-serif" font-weight="700" font-size="14.6667" transform="matrix(1 0 0 1.00038 712.113 193)">filterPLY</text><text font-family="Calibri,Calibri_MSFontService,sans-serif" font-weight="700" font-size="14.6667" transform="matrix(1 0 0 1.00038 728.354 210)">.</text><text font-family="Calibri,Calibri_MSFontService,sans-serif" font-weight="700" font-size="14.6667" transform="matrix(1 0 0 1.00038 732.352 210)">py</text><path d="M810.5 173.567 847.5 173.567 847.5 207.882 836.803 218.584 810.5 218.584Z" fill="#FFFFFF" fill-rule="evenodd"/><path d="M836.803 218.584 838.942 210.023 847.5 207.882Z" fill="#CDCDCD" fill-rule="evenodd"/><path d="M836.803 218.584 838.942 210.023 847.5 207.882 836.803 218.584 810.5 218.584 810.5 173.567 847.5 173.567 847.5 207.882" stroke="#172C51" stroke-width="1.33282" stroke-miterlimit="8" fill="none" fill-rule="evenodd"/><text font-family="Calibri,Calibri_MSFontService,sans-serif" font-weight="700" font-size="14.6667" transform="matrix(1 0 0 1.00038 797.812 147)">filtered</text><text font-family="Yu Gothic,Yu Gothic_MSFontService,sans-serif" font-weight="700" font-size="14.6667" transform="matrix(1 0 0 1.00038 797.812 164)">点群</text><text font-family="Calibri,Calibri_MSFontService,sans-serif" font-weight="700" font-size="14.6667" transform="matrix(1 0 0 1.00038 827.134 164)">(.ply)</text><path d="M666.001 194.075 671.69 194.081 676.655 194.098 678.639 194.109 680.173 194.122 681.172 194.136 681.533 194.15 681.881 194.164 681.855 194.163 682.839 194.177 682.833 194.177 684.361 194.19 686.341 194.201 690.326 194.212 690.32 196.212 686.329 196.201 684.345 196.189 682.814 196.177 681.815 196.163 681.453 196.149 681.105 196.135 681.132 196.135 680.148 196.122 680.154 196.122 678.628 196.109 676.648 196.098 671.688 196.081 665.999 196.075ZM688.997 191.21 696.987 195.224 688.983 199.21Z"/><path d="M778.001 194.075 783.833 194.079 788.922 194.09 790.955 194.098 792.525 194.107 793.544 194.116 793.909 194.125 794.266 194.135 794.249 194.134 795.257 194.143 795.253 194.143 796.82 194.152 798.85 194.159 803.104 194.167 803.1 196.167 798.843 196.159 796.809 196.152 795.241 196.143 794.222 196.134 793.857 196.125 793.5 196.115 793.517 196.116 792.509 196.106 792.513 196.106 790.948 196.098 788.917 196.09 783.831 196.079 777.999 196.075ZM801.773 191.166 809.766 195.175 801.764 199.166Z"/><path d="M829.287 218.131 829.062 222.925 828.388 227.754 827.283 232.558 825.764 237.327 823.846 242.053 821.536 246.739 815.847 255.874 808.791 264.707 800.493 273.151 791.066 281.137 780.623 288.594 769.278 295.449 757.142 301.629 744.327 307.063 730.946 311.675 717.11 315.392 702.932 318.14 688.525 319.844 680.699 320.159 680.619 318.16 688.406 317.847 688.328 317.853 702.661 316.158 702.588 316.169 716.695 313.435 716.626 313.451 730.394 309.752 730.327 309.773 743.643 305.183 743.579 305.208 756.329 299.802 756.266 299.831 768.339 293.683 768.275 293.718 779.557 286.901 779.493 286.944 789.87 279.533 789.805 279.584 799.166 271.654 799.099 271.716 807.329 263.341 807.261 263.418 814.249 254.671 814.181 254.767 819.813 245.724 819.765 245.81 822.036 241.201 822.007 241.266 823.897 236.61 823.871 236.683 825.366 231.99 825.344 232.069 826.43 227.348 826.414 227.434 827.075 222.694 827.067 222.786 827.29 218.037ZM682.151 323.102 674 319.427 681.83 315.109Z"/></g></svg>